<mxfile host="app.diagrams.net" modified="2024-07-17T16:35:30.553Z" agent="Mozilla/5.0 (Windows NT 10.0; Win64; x64) AppleWebKit/537.36 (KHTML, like Gecko) Chrome/125.0.0.0 Safari/537.36 OPR/111.0.0.0" version="24.7.1" etag="4vBVxCvqv2Q3Y8fh2fBM" type="github">
  <diagram name="PÃ¡gina-1" id="As4PcaeyPNjhqhuAYCdB">
    <mxGraphModel>
      <root>
        <mxCell id="0" />
        <mxCell id="1" parent="0" />
      </root>
    </mxGraphModel>
  </diagram>
</mxfile>
